<?xml version="1.0" encoding="utf-8"?>
<!-- Generator: Adobe Illustrator 16.0.0, SVG Export Plug-In . SVG Version: 6.00 Build 0)  -->
<!DOCTYPE svg PUBLIC "-//W3C//DTD SVG 1.1//EN" "http://www.w3.org/Graphics/SVG/1.1/DTD/svg11.dtd">
<svg version="1.1" id="Calque_1" xmlns="http://www.w3.org/2000/svg" xmlns:xlink="http://www.w3.org/1999/xlink" x="0px" y="0px"
	 width="396.85px" height="283.46px" viewBox="0 0 396.85 283.46" enable-background="new 0 0 396.85 283.46" xml:space="preserve">
<g>
	<path fill="#FFFFFF" d="M337.368,73.167c45.07,62.875-49.428,113.77-121.627,155.861C143.556,271.131,78.874,314.164,33.8,251.307
		C-11.282,188.429-7.758,60.865,64.437,18.772C136.627-23.322,292.286,10.297,337.368,73.167z"/>
	<path fill="#FFFFFF" d="M349.623,15.223c33.892,2.138,34.786,25.095,32.074,52.768c-2.696,27.674-9.218,69.165-43.104,67.03
		c-33.896-2.138-66.973-45.593-64.272-73.269C277.029,34.078,315.728,13.084,349.623,15.223z"/>
	<path fill="#FFFFFF" d="M373.489,220.36c-26.079,31.163-60.597,25.943-91.068-4.447c-30.473-30.382-18.898-52.299,7.175-83.461
		c26.079-31.167,55.354-58.351,85.823-27.958C405.891,134.879,399.565,189.193,373.489,220.36z"/>
	
		<radialGradient id="SVGID_1_" cx="321.46" cy="141.0083" r="154.8982" gradientTransform="matrix(1.8021 -1.0507 1.1252 1.5694 -471.5039 223.2126)" gradientUnits="userSpaceOnUse">
		<stop  offset="0.4141" style="stop-color:#267ABF"/>
		<stop  offset="0.8634" style="stop-color:#2E2C72"/>
	</radialGradient>
	<path fill="url(#SVGID_1_)" d="M337.368,73.167c45.07,62.875-49.428,113.77-121.627,155.861
		C143.556,271.131,78.874,314.164,33.8,251.307C-11.282,188.429-7.758,60.865,64.437,18.772
		C136.627-23.322,292.286,10.297,337.368,73.167z"/>
	
		<linearGradient id="SVGID_2_" gradientUnits="userSpaceOnUse" x1="218.1436" y1="249.1162" x2="283.9463" y2="249.1162" gradientTransform="matrix(0.178 -1.8199 2.2288 0.1406 -272.8047 495.8994)">
		<stop  offset="0" style="stop-color:#FEEC36"/>
		<stop  offset="0.4011" style="stop-color:#F39200"/>
		<stop  offset="1" style="stop-color:#BE1622"/>
	</linearGradient>
	<path fill="url(#SVGID_2_)" d="M349.623,15.223c33.892,2.138,34.786,25.095,32.074,52.768c-2.696,27.674-9.218,69.165-43.104,67.03
		c-33.896-2.138-66.973-45.593-64.272-73.269C277.029,34.078,315.728,13.084,349.623,15.223z"/>
	<linearGradient id="SVGID_3_" gradientUnits="userSpaceOnUse" x1="311.6221" y1="135.0889" x2="311.6221" y2="34.5068">
		<stop  offset="0" style="stop-color:#3F6F35"/>
		<stop  offset="1" style="stop-color:#4C3C2F"/>
	</linearGradient>
	<path fill="url(#SVGID_3_)" d="M337.368,73.167c-10.525-14.679-27.083-27.763-47.195-38.661
		c-8.858,7.596-14.845,16.957-15.852,27.245c-2.7,27.675,30.377,71.13,64.272,73.269c0.55,0.034,1.094,0.057,1.63,0.068
		C351.798,115.833,353.19,95.239,337.368,73.167z"/>
	
		<linearGradient id="SVGID_4_" gradientUnits="userSpaceOnUse" x1="63.1191" y1="406.5781" x2="127.5068" y2="406.5781" gradientTransform="matrix(1.333 1.3294 -1.1408 1.3633 674.5132 -512)">
		<stop  offset="0.2025" style="stop-color:#FFED00"/>
		<stop  offset="0.5153" style="stop-color:#D5DA31"/>
		<stop  offset="1" style="stop-color:#8CC047"/>
	</linearGradient>
	<path fill="url(#SVGID_4_)" d="M373.489,220.36c-26.079,31.163-60.597,25.943-91.068-4.447
		c-30.473-30.382-18.898-52.299,7.175-83.461c26.079-31.167,55.354-58.351,85.823-27.958
		C405.891,134.879,399.565,189.193,373.489,220.36z"/>
	<linearGradient id="SVGID_5_" gradientUnits="userSpaceOnUse" x1="338.752" y1="135.0996" x2="338.752" y2="91.2358">
		<stop  offset="0" style="stop-color:#E5D813"/>
		<stop  offset="0.9448" style="stop-color:#EAA018"/>
	</linearGradient>
	<path fill="url(#SVGID_5_)" d="M302.398,117.969c10.69,9.531,23.384,16.244,36.195,17.052
		c20.317,1.279,30.796-13.126,36.511-30.832C349.64,79.111,325.015,94.138,302.398,117.969z"/>
	<linearGradient id="SVGID_6_" gradientUnits="userSpaceOnUse" x1="289.7012" y1="163.2754" x2="340.7754" y2="105.6526">
		<stop  offset="0.0429" style="stop-color:#006633"/>
		<stop  offset="0.8037" style="stop-color:#3AAA35"/>
	</linearGradient>
	<path fill="url(#SVGID_6_)" d="M346.715,91.251c-20.101,0.589-39.352,19.967-57.119,41.201
		c-20.582,24.598-32.123,43.439-21.084,65.227C317.601,166.755,359.601,131.591,346.715,91.251z"/>
	<linearGradient id="SVGID_7_" gradientUnits="userSpaceOnUse" x1="327.1533" y1="119.9375" x2="346.3334" y2="98.2982">
		<stop  offset="0.2331" style="stop-color:#008D36"/>
		<stop  offset="0.8098" style="stop-color:#006633"/>
	</linearGradient>
	<path fill="url(#SVGID_7_)" d="M346.715,91.252c-0.02,0-0.04,0.002-0.059,0.002c-0.576,0.018-1.151,0.052-1.724,0.101
		c-0.051,0.004-0.101,0.007-0.15,0.011c-0.58,0.052-1.159,0.12-1.737,0.201c-0.068,0.009-0.138,0.02-0.207,0.03
		c-1.177,0.174-2.351,0.408-3.521,0.7c-0.055,0.014-0.111,0.027-0.167,0.042c-0.582,0.148-1.164,0.31-1.744,0.486
		c-0.043,0.013-0.089,0.028-0.132,0.041c-1.182,0.364-2.361,0.784-3.536,1.259c-0.054,0.022-0.108,0.044-0.163,0.066
		c-0.587,0.239-1.174,0.49-1.759,0.756c-0.008,0.004-0.017,0.008-0.024,0.012c-0.6,0.272-1.197,0.559-1.795,0.858
		c-0.013,0.006-0.025,0.012-0.038,0.018c-0.584,0.293-1.166,0.6-1.748,0.918c-0.053,0.028-0.104,0.057-0.156,0.085
		c-1.166,0.641-2.329,1.33-3.488,2.063c-0.038,0.024-0.078,0.049-0.118,0.074c-0.573,0.365-1.146,0.741-1.717,1.126
		c-0.043,0.029-0.087,0.06-0.129,0.088c-1.149,0.779-2.293,1.6-3.433,2.458c-0.059,0.044-0.117,0.088-0.175,0.132
		c-0.562,0.425-1.122,0.859-1.682,1.302c-0.034,0.026-0.066,0.054-0.102,0.081c-0.56,0.445-1.119,0.899-1.679,1.362
		c-0.018,0.016-0.036,0.03-0.055,0.045c-0.553,0.46-1.106,0.929-1.656,1.404c-0.074,0.064-0.148,0.128-0.224,0.192
		c-0.549,0.476-1.096,0.957-1.644,1.447c-0.016,0.016-0.033,0.031-0.05,0.046c-0.533,0.478-1.063,0.964-1.593,1.455
		c-0.071,0.066-0.142,0.131-0.213,0.196c-0.522,0.487-1.046,0.98-1.566,1.479c-0.094,0.089-0.187,0.18-0.28,0.269
		c-1.049,1.01-2.094,2.043-3.134,3.097c-0.114,0.116-0.228,0.231-0.342,0.347c-0.49,0.498-0.979,1.001-1.466,1.508
		c-0.12,0.125-0.239,0.251-0.36,0.377c-0.183,0.192-0.366,0.387-0.55,0.58c10.69,9.53,23.383,16.242,36.193,17.05
		c0.551,0.034,1.092,0.053,1.629,0.065C348.571,121.188,351.616,106.595,346.715,91.252z"/>
	<g>
		<path fill="#29235C" d="M103.251,61.367h4.314c5.803,1.9,8.707,4.965,8.707,9.197c-3.635,0.814-5.455,1.737-5.455,2.767
			l-5.371-0.895c-12.808,0-26.155,5.237-40.045,15.71l-3.255,4.638c0,3.203,16.224,8.737,48.671,16.604
			c5.917,2.715,10.611,6.078,14.083,10.093v2.849c-12.155,11.829-29.085,20.132-50.79,24.905l-15.138,2.767l-1.14-0.977
			l-3.256,0.977c-14.324,0-23.686-4.312-28.08-12.94v-1.873c1.68-3.689,3.12-5.533,4.313-5.533
			c4.884,4.774,9.578,7.866,14.081,9.277h4.314c22.897,0,41.997-6.156,57.301-18.475v-1.872
			c-24.309-5.806-40.535-10.419-48.673-13.837c-7.218-5.317-10.826-10.852-10.826-16.603c2.983-7.76,15.6-15.467,37.849-23.118
			C90.824,62.586,96.956,61.367,103.251,61.367z"/>
		<path fill="#29235C" d="M164.803,107.842l5.129,1.953c0.27,4.72-1.059,10.988-3.991,18.801l-0.731,5.616
			c0.108,5.374,2.497,10.066,7.162,14.081l0.408,4.154c-1.956,0.267-3.558,0.405-4.803,0.405c-3.313,0-7.243-3.31-11.801-9.93
			l-1.303-5.942l-0.325-2.035l-0.651,0.082c-10.473,9.768-18.368,14.841-23.686,15.22c-3.146-0.379-5.127-1.409-5.939-3.091
			l-0.571-3.828C127.228,120.375,140.927,108.546,164.803,107.842z M134.362,139.422l3.825-2.849
			c12.316-9.604,19.292-16.604,20.92-21.001h-0.653C144.399,120.403,136.369,128.352,134.362,139.422z"/>
		<path fill="#29235C" d="M224.876,60.715c4.012,0,6.59,1.52,7.73,4.558c0,1.683-3.882,3.717-11.642,6.105
			c-6.942,7.598-11.826,18.557-14.651,32.883v1.545h0.817c15.081-3.038,24.851-4.559,29.301-4.559h1.545v0.734
			c0,2.551-2.306,3.825-6.918,3.825v0.734l0.73,0.812v0.732l-27.021,6.919v6.104l-0.731,0.733l0.731,0.813v10.663
			c0,8.193,0.139,26.62,1.714,34.708h-0.817c1.033,2.28,1.549,5.587,1.549,9.93v0.732c0,1.844-1.031,3.907-3.093,6.184
			c-5.641-0.977-8.466-2.768-8.466-5.373c1.522,0,2.28-1.029,2.28-3.091l-3.177-57.579c-1.951,0-7.355,2.797-16.197,8.384
			c-2.55,0-4.096-2.552-4.639-7.651c4.776-4.396,12.236-7.947,22.382-10.663C202.329,76.777,211.85,60.715,224.876,60.715z"/>
		<path fill="#29235C" d="M255.311,107.842l5.131,1.953c0.272,4.72-1.058,10.988-3.988,18.801l-0.732,5.616
			c0.107,5.374,2.494,10.066,7.16,14.081l0.411,4.154c-1.957,0.267-3.559,0.405-4.806,0.405c-3.309,0-7.244-3.31-11.801-9.93
			l-1.306-5.942l-0.323-2.035l-0.647,0.082c-10.475,9.768-18.373,14.841-23.687,15.22c-3.148-0.379-5.129-1.409-5.943-3.091
			l-0.57-3.828C217.738,120.375,231.437,108.546,255.311,107.842z M224.869,139.422l3.828-2.849
			c12.316-9.604,19.288-16.604,20.919-21.001h-0.654C234.911,120.403,226.877,128.352,224.869,139.422z"/>
		<path fill="#29235C" d="M292.961,108.003c5.591,1.087,8.382,3.745,8.382,7.976c-1.084,2.388-2.194,3.692-3.337,3.908l-3.417-0.732
			L281.16,149.27l-5.861,0.731h-1.707c-5.592-5.045-8.386-12.425-8.386-22.138v-3.173c0-5.807,0.843-8.711,2.525-8.711h2.521
			c3.202,0,5.154,6.078,5.86,18.232h0.896C282.759,116.741,288.079,108.003,292.961,108.003z"/>
		<path fill="#29235C" d="M308.905,87.751h2.931c4.447,0,6.674,2.308,6.674,6.919v2.93c-0.651,1.955-2.576,2.931-5.776,2.931
			c-2.063,0-4.29-2.278-6.676-6.836C306.711,89.733,307.658,87.751,308.905,87.751z M308.825,109.632h4.15
			c1.304,0.38,2.656,2.686,4.071,6.918l-0.814,13.755c0,4.558,1.652,9.496,4.965,14.813v1.953l-2.441,2.93h-2.523
			c-6.565,0-9.853-6.564-9.853-19.696v-7.895C306.38,113.892,307.197,109.632,308.825,109.632z"/>
	</g>
	<g>
		<path fill="#FFFFFF" d="M101.257,59.374h4.315c5.803,1.9,8.707,4.965,8.707,9.197c-3.636,0.814-5.455,1.736-5.455,2.767
			l-5.37-0.896c-12.808,0-26.155,5.237-40.045,15.71l-3.255,4.638c0,3.203,16.224,8.738,48.67,16.604
			c5.917,2.715,10.611,6.078,14.083,10.093v2.849c-12.154,11.829-29.085,20.132-50.79,24.907l-15.138,2.765l-1.14-0.976
			l-3.256,0.976c-14.324,0-23.687-4.312-28.08-12.939v-1.873c1.68-3.689,3.121-5.534,4.313-5.534
			c4.883,4.774,9.578,7.867,14.081,9.277h4.315c22.897,0,41.996-6.156,57.3-18.475v-1.872c-24.309-5.806-40.535-10.42-48.673-13.838
			c-7.218-5.317-10.825-10.852-10.825-16.603c2.983-7.76,15.6-15.466,37.848-23.118C88.831,60.593,94.962,59.374,101.257,59.374z"/>
		<path fill="#FFFFFF" d="M162.81,105.848l5.129,1.953c0.27,4.721-1.059,10.988-3.991,18.801l-0.732,5.616
			c0.108,5.373,2.497,10.066,7.162,14.081l0.408,4.154c-1.956,0.267-3.557,0.405-4.803,0.405c-3.313,0-7.243-3.31-11.801-9.93
			l-1.303-5.941l-0.326-2.036l-0.651,0.082c-10.473,9.768-18.368,14.841-23.686,15.22c-3.146-0.379-5.126-1.41-5.939-3.092
			l-0.572-3.827C125.235,118.382,138.933,106.553,162.81,105.848z M132.368,137.428l3.826-2.849
			c12.316-9.604,19.291-16.604,20.919-21.001h-0.653C142.406,118.41,134.375,126.358,132.368,137.428z"/>
		<path fill="#FFFFFF" d="M222.882,58.722c4.014,0,6.591,1.52,7.73,4.558c0,1.683-3.88,3.717-11.64,6.105
			c-6.944,7.598-11.828,18.557-14.652,32.882v1.546h0.816c15.082-3.038,24.852-4.559,29.302-4.559h1.546v0.734
			c0,2.551-2.308,3.825-6.919,3.825v0.734l0.73,0.812v0.732l-27.021,6.919v6.104l-0.731,0.733l0.731,0.813v10.663
			c0,8.193,0.139,26.621,1.713,34.707h-0.816c1.034,2.28,1.549,5.587,1.549,9.932v0.73c0,1.845-1.031,3.908-3.093,6.185
			c-5.641-0.977-8.466-2.768-8.466-5.373c1.521,0,2.28-1.029,2.28-3.092l-3.177-57.578c-1.951,0-7.355,2.797-16.197,8.384
			c-2.551,0-4.096-2.552-4.64-7.652c4.776-4.395,12.237-7.946,22.382-10.663C200.335,74.784,209.856,58.722,222.882,58.722z"/>
		<path fill="#FFFFFF" d="M253.316,105.848l5.131,1.953c0.272,4.721-1.057,10.988-3.987,18.801l-0.732,5.616
			c0.106,5.373,2.494,10.066,7.16,14.081l0.411,4.154c-1.956,0.267-3.56,0.405-4.807,0.405c-3.309,0-7.242-3.31-11.8-9.93
			l-1.306-5.941l-0.323-2.036l-0.647,0.082c-10.475,9.768-18.373,14.841-23.688,15.22c-3.147-0.379-5.128-1.41-5.942-3.092
			l-0.571-3.827C215.744,118.382,229.442,106.553,253.316,105.848z M222.875,137.428l3.829-2.849
			c12.316-9.604,19.288-16.604,20.919-21.001h-0.654C232.918,118.41,224.884,126.358,222.875,137.428z"/>
		<path fill="#FFFFFF" d="M290.968,106.01c5.59,1.087,8.381,3.745,8.381,7.976c-1.083,2.387-2.193,3.691-3.336,3.907l-3.417-0.732
			l-13.429,30.116l-5.861,0.73h-1.707c-5.592-5.044-8.386-12.424-8.386-22.138v-3.172c0-5.807,0.843-8.711,2.524-8.711h2.521
			c3.202,0,5.155,6.078,5.86,18.232h0.896C280.766,114.748,286.085,106.01,290.968,106.01z"/>
		<path fill="#FFFFFF" d="M306.912,85.757h2.931c4.446,0,6.673,2.308,6.673,6.919v2.93c-0.651,1.955-2.575,2.931-5.775,2.931
			c-2.063,0-4.29-2.278-6.676-6.836C304.718,87.74,305.665,85.757,306.912,85.757z M306.832,107.638h4.15
			c1.303,0.38,2.655,2.686,4.071,6.918l-0.814,13.755c0,4.558,1.652,9.496,4.965,14.813v1.953l-2.442,2.929h-2.522
			c-6.566,0-9.853-6.563-9.853-19.695v-7.895C304.387,111.898,305.203,107.638,306.832,107.638z"/>
	</g>
	<g>
		<g>
			<path fill="#29235C" d="M57.155,163.402l-6.339,18.411h-3.549l-6.171-18.411h4.722l3.973,12.322l3.928-12.322H57.155z"/>
			<path fill="#29235C" d="M69.541,182.139c-2.709,0-4.717-0.949-6.025-2.842c-1.113-1.613-1.668-3.812-1.668-6.596
				c0-2.818,0.561-5.046,1.682-6.676c1.325-1.91,3.36-2.866,6.109-2.866c2.681,0,4.666,0.973,5.95,2.916
				c1.071,1.621,1.61,3.824,1.61,6.604c0,2.763-0.558,4.961-1.671,6.58C74.218,181.177,72.223,182.139,69.541,182.139z
				 M72.955,173.782v-2.206c0-1.807-0.183-3.137-0.55-3.993c-0.521-1.212-1.475-1.82-2.864-1.82c-1.423,0-2.391,0.596-2.902,1.787
				c-0.367,0.849-0.549,2.179-0.549,4.001v2.206c0,1.833,0.214,3.189,0.645,4.077c0.537,1.112,1.473,1.666,2.806,1.666
				C71.815,179.5,72.955,177.593,72.955,173.782z"/>
			<path fill="#29235C" d="M98.799,163.402l-6.243,10.609v7.802H88.36v-7.388l-6.339-11.023h4.938l4.096,7.383l4.366-7.383H98.799z"
				/>
			<path fill="#29235C" d="M119.414,181.813h-4.316l-1.401-4.422h-6.171l-1.413,4.422h-3.429l6.294-18.411h3.949L119.414,181.813z
				 M112.829,174.74l-2.305-6.771l-2.169,6.771H112.829z"/>
			<path fill="#29235C" d="M139.27,179.069c-1.322,2.046-3.611,3.069-6.862,3.069c-5.26,0-7.89-3.192-7.89-9.578
				c0-2.902,0.725-5.17,2.17-6.809c1.537-1.728,3.761-2.593,6.671-2.593c1.77,0,3.243,0.32,4.414,0.962l-0.452,2.731
				c-1.292-0.567-2.486-0.85-3.583-0.85c-3.349,0-5.026,2.225-5.026,6.677c0,1.918,0.208,3.375,0.624,4.374
				c0.624,1.504,1.769,2.255,3.427,2.255c1.494,0,2.493-0.386,2.999-1.152v-3.753h-2.999v-2.456h6.508V179.069z"/>
			<path fill="#29235C" d="M157.521,181.813h-11.376v-18.411h11.376v2.744h-7.159v4.962h5.562v2.746h-5.562v5.238h7.159V181.813z"/>
			<path fill="#29235C" d="M176.184,176.334c0,3.812-2.374,5.72-7.12,5.72c-2.13,0-3.959-0.31-5.488-0.935l0.551-2.866
				c1.348,0.643,2.746,0.962,4.194,0.962c1.111,0,1.913-0.119,2.4-0.351c0.731-0.344,1.098-0.999,1.098-1.966
				c0-0.768-0.459-1.437-1.378-2.015c-0.421-0.264-1.214-0.623-2.376-1.076c-1.464-0.575-2.532-1.259-3.206-2.052
				c-0.774-0.911-1.16-2.093-1.16-3.547c0-1.687,0.756-2.984,2.27-3.896c1.273-0.769,2.832-1.154,4.669-1.154
				c1.943,0,3.54,0.25,4.792,0.746l-0.451,2.695c-1.57-0.398-2.94-0.598-4.109-0.598c-2.114,0-3.17,0.604-3.17,1.824
				c0,0.812,0.447,1.477,1.341,1.985c0.104,0.068,0.931,0.372,2.473,0.924C174.629,171.856,176.184,173.721,176.184,176.334z"/>
		</g>
		<g>
			<path fill="#FFFFFF" d="M55.954,162.084l-6.338,18.414h-3.55l-6.17-18.414h4.718l3.974,12.324l3.927-12.324H55.954z"/>
			<path fill="#FFFFFF" d="M68.338,180.821c-2.707,0-4.715-0.947-6.024-2.84c-1.113-1.616-1.67-3.812-1.67-6.596
				c0-2.819,0.562-5.046,1.684-6.675c1.324-1.911,3.361-2.866,6.108-2.866c2.683,0,4.666,0.972,5.948,2.912
				c1.075,1.625,1.61,3.827,1.61,6.606c0,2.765-0.556,4.959-1.669,6.581C73.017,179.86,71.021,180.821,68.338,180.821z
				 M71.752,172.465v-2.206c0-1.805-0.183-3.135-0.549-3.99c-0.519-1.216-1.476-1.82-2.864-1.82c-1.422,0-2.39,0.595-2.903,1.786
				c-0.364,0.846-0.548,2.179-0.548,4.002v2.206c0,1.831,0.214,3.19,0.648,4.076c0.535,1.112,1.471,1.666,2.803,1.666
				C70.615,178.185,71.752,176.278,71.752,172.465z"/>
			<path fill="#FFFFFF" d="M97.598,162.084l-6.244,10.611v7.803h-4.193v-7.388l-6.342-11.026h4.939l4.099,7.386l4.365-7.386H97.598z
				"/>
			<path fill="#FFFFFF" d="M118.212,180.498h-4.314l-1.404-4.423h-6.169l-1.413,4.423h-3.427l6.292-18.414h3.951L118.212,180.498z
				 M111.63,173.426l-2.307-6.774l-2.167,6.774H111.63z"/>
			<path fill="#FFFFFF" d="M138.071,177.753c-1.325,2.046-3.612,3.068-6.865,3.068c-5.258,0-7.889-3.19-7.889-9.579
				c0-2.899,0.722-5.169,2.17-6.809c1.537-1.725,3.758-2.589,6.669-2.589c1.772,0,3.243,0.32,4.414,0.96l-0.45,2.733
				c-1.293-0.568-2.49-0.852-3.586-0.852c-3.348,0-5.024,2.226-5.024,6.677c0,1.919,0.208,3.376,0.622,4.375
				c0.625,1.502,1.768,2.252,3.427,2.252c1.497,0,2.496-0.384,3-1.149v-3.752h-3v-2.456h6.511V177.753z"/>
			<path fill="#FFFFFF" d="M156.319,180.498h-11.374v-18.414h11.374v2.746h-7.157v4.963h5.56v2.747h-5.56v5.238h7.157V180.498z"/>
			<path fill="#FFFFFF" d="M174.985,175.018c0,3.813-2.374,5.72-7.121,5.72c-2.129,0-3.958-0.312-5.488-0.937l0.548-2.863
				c1.35,0.638,2.749,0.956,4.195,0.956c1.114,0,1.916-0.113,2.403-0.346c0.73-0.343,1.097-0.999,1.097-1.965
				c0-0.768-0.459-1.438-1.378-2.016c-0.422-0.263-1.215-0.622-2.377-1.078c-1.462-0.572-2.533-1.256-3.208-2.052
				c-0.772-0.908-1.158-2.092-1.158-3.546c0-1.687,0.756-2.983,2.268-3.894c1.276-0.768,2.834-1.153,4.671-1.153
				c1.941,0,3.541,0.249,4.791,0.742l-0.452,2.699c-1.567-0.4-2.938-0.6-4.107-0.6c-2.116,0-3.172,0.606-3.172,1.822
				c0,0.813,0.449,1.479,1.342,1.988c0.106,0.067,0.93,0.374,2.476,0.924C173.425,170.541,174.985,172.405,174.985,175.018z"/>
		</g>
	</g>
</g>
<g>
</g>
<g>
</g>
<g>
</g>
<g>
</g>
<g>
</g>
<g>
</g>
</svg>
